<svg width="250" height="66" viewBox="0 0 250 66" fill="none" xmlns="http://www.w3.org/2000/svg">
<path d="M54.7097 1H0V65H54.7097V1Z" fill="white"/>
<path d="M149.514 0V64.0491H137.972V12.5392L121.741 64.0491H111.01L94.779 12.5392V64.0491H83.2368V0H101.001L116.421 49.6155L131.75 0H149.514Z" fill="white"/>
<path d="M173.901 65.1316C169.152 65.1316 165.455 63.7484 162.81 60.9819C160.225 58.1553 158.933 54.3364 158.933 49.5253V18.042H170.294V47.0896C170.294 53.1036 173.03 56.1106 178.5 56.1106C181.386 56.1106 183.73 55.0281 185.534 52.863C187.397 50.698 188.329 47.8413 188.329 44.2931V18.042H199.691V64.0491H188.51V56.6518C185.323 62.305 180.454 65.1316 173.901 65.1316Z" fill="white"/>
<path d="M204.543 18.042H216.716L226.726 32.1147L236.735 18.042H248.638L232.587 40.414L249.539 64.0491H237.276L226.545 48.984L215.815 64.0491H203.731L220.684 40.5945L204.543 18.042Z" fill="white"/>
</svg>