<svg xmlns="http://www.w3.org/2000/svg" viewBox="0 0 65 65">
  <path fill="currentColor" d="M32.447 0c.68 0 1.273.465 1.439 1.125a38.9 38.9 0 002 5.905c2.15 5 5.1 9.376 8.85 13.125 3.75 3.75 8.13 6.703 13.13 8.855a39 39 0 005.9 1.999c.66.166 1.13.758 1.13 1.438 0 .68-.47 1.273-1.13 1.439a38.9 38.9 0 00-5.9 1.999c-5 2.152-9.38 5.105-13.13 8.854-3.75 3.751-6.7 8.126-8.85 13.125a38.9 38.9 0 00-2 5.906c-.17.66-.76 1.124-1.44 1.124-.68 0-1.27-.464-1.44-1.125a38.9 38.9 0 00-2-5.905c-2.15-5-5.1-9.374-8.85-13.125-3.75-3.749-8.13-6.702-13.13-8.854a38.9 38.9 0 00-5.9-1.999C.46 33.72 0 33.127 0 32.447c0-.68.47-1.272 1.13-1.438a38.9 38.9 0 005.9-1.999c5-2.152 9.38-5.105 13.13-8.855 3.75-3.749 6.7-8.125 8.85-13.125a38.9 38.9 0 002-5.905C31.17.465 31.77 0 32.45 0z"/>
</svg>
