<svg xmlns="http://www.w3.org/2000/svg" fill="currentColor" viewBox="0 0 1024 1024"><path d="M333 156v21h356v-42H333zM259 209v20.9l78.3-.2 78.2-.2.3-20.8.2-20.7H259zM610.7 188.7l-.7.6V230h151.8l1.6-.6 1.6-.6V188H611.3zM472 250.2v25.3l.7 12.7.6 12.8H495v61l-84.5-.2-84.5-.3V395h-33v75h-35v120h35l.3-56.8.4-56.7-.5 101.7-.4 101.8H325l.3-142.3.2-142.2.3 143.2.2 143.3h373V362H531v-26.7l-.7-16.6-.6-16.6-7.1-.4-7.1-.3 17.5-.2 17.5-.2 2.3-.6 2.2-.6v-73.5l-26.2-.6-26.3-.7H472z"/><path d="m551.1 515.5.3 69.5H662V446H550.8z"/><path d="m591.3 477.7-9.3.4V555h50v-78l-15.7.2-15.8.2zM394 516.5V555h49v-77h-49zM477.3 623.7l-45.3.3v30.3l73.3-.6 73.2-.7H594l-.2-15-.2-15-35.6.2-35.5.3zM200 261v22h150v-44H200zM676 261v22h147v-44H676zM156 316.8V340h134.6l1.2-1.2 1.2-1.2V295H190.5l-17.2-.7-17.3-.6zM795.3 294.7l-64.3.3v45h136.1l1.5-1.4 1.4-1.5-.2-21.3-.3-21.3h-5l-5-.1zM128 377v24h132.3l-.7-3.8-.6-3.7V353H128zM765 377.5V401h63.3l63.2-.1 2.2-.5 2.2-.6.3-22.9.3-22.9H765zM700.3 397.3l-.5.8.7 140.7.6 140.7h29.8l.5-26.5.5-26.5v-18.3l.1-18.2h32V470h-32l-.2-36.6-.3-36.7-15.3-.1-15.4-.1zM117 437.5V461h113v-47H117zM794.7 414.7l-.7.6V461h69.7l21.1-.7 21.2-.6V414H795.3zM117 499.5V525l56.3-.2 56.2-.3.3-14 .3-14-.6-11.3-.7-11.2H117zM794 499v25l55.8-.2 55.7-.3.3-24.8.2-24.7H794zM835.3 537.7l-41.3.3v47h112v-48l-14.7.2-14.8.3zM118 562.2v24.1l36.2-.6 36.1-.7H229v-47H118zM125 621.4v23.3l6.8.6 6.7.7H230v-46.7l-13.7-.6-13.6-.7H125zM794 622v24h104v-48H794zM180.3 657.7l-26.3.3v48h106v-47.7l-15.2-.6-15.1-.7-11.6.2-11.6.3zM764.7 674.7l-.7 16.6V706h106v-48H765.3zM325.4 685.2l.6 2.3V717h100v34h-39v37.1l-17-.3-17-.3V824h319v-37h-35v-36h-39v-34l37.8-.3 37.7-.2 12.8.1H699V683H324.8zM199.7 719.6l-.7.7V765h94v-45h-86.7l-2.9-.6-2.9-.6zM731 742v23h94v-46h-94z"/><path d="M259 802.5V824h93v-43h-93zM673 802.5V824h92v-43h-92zM333 858.4v20.4l.6 1.6.6 1.6H692v-44H333z"/></svg>
