<?xml version="1.0" encoding="UTF-8"?>
<svg xmlns="http://www.w3.org/2000/svg" viewBox="0 0 57.47 22.85">
  <defs>
    <style>
      .cls-1 {
        fill: #FFFFFF;
        stroke-width: 0px;
      }
    </style>
  </defs>
  <g>
    <rect class="cls-1" x="37.47" y="0" width="20" height="22.85"/>
    <path class="cls-1" d="M0,22.85V1H5.5L5.7,6.26L5.14,6.01C5.43,4.85,5.88,3.85,6.48,3.04C7.11,2.22,7.85,1.6,8.72,1.16C9.59,0.73,10.54,0.51,11.58,0.51C13.4,0.51,14.86,1.04,15.98,2.1C17.12,3.16,17.85,4.59,18.18,6.38L17.4,6.42C17.65,5.15,18.07,4.07,18.67,3.2C19.29,2.3,20.05,1.64,20.95,1.2C21.85,0.74,22.85,0.51,23.97,0.51C25.49,0.51,26.79,0.82,27.88,1.45C28.97,2.07,29.81,3.01,30.41,4.26C31.01,5.48,31.3,6.99,31.3,8.79V22.85H25.19V10.5C25.19,8.79,24.93,7.51,24.42,6.67C23.9,5.8,23.06,5.36,21.89,5.36C21.15,5.36,20.53,5.57,20.01,5.97C19.5,6.38,19.09,6.98,18.79,7.77C18.52,8.53,18.38,9.47,18.38,10.58V22.85H12.88V10.58C12.88,8.9,12.64,7.6,12.15,6.71C11.66,5.81,10.81,5.36,9.62,5.36C8.89,5.36,8.25,5.57,7.7,5.97C7.19,6.38,6.79,6.98,6.52,7.77C6.25,8.55,6.11,9.49,6.11,10.58V22.85H0Z"/>
  </g>
</svg>
