<?xml version="1.0" encoding="UTF-8"?>
<svg xmlns="http://www.w3.org/2000/svg" viewBox="0 0 57.46 26.5">
  <defs>
    <style>
      .cls-1 {
        fill: #090B0B;
        stroke-width: 0px;
      }
    </style>
  </defs>
  <g>
    <rect class="cls-1" x="37.46" y="3" width="20" height="23"/>
    <path class="cls-1" d="M0 26.5V4.6525H5.5026L5.7064 9.9106L5.1358 9.666C5.4347 8.4976 5.883 7.5057 6.4809 6.6905C7.1058 5.8753 7.8531 5.2503 8.7227 4.8155C9.5922 4.3808 10.5433 4.1634 11.5759 4.1634C13.3965 4.1634 14.8639 4.6933 15.978 5.753C17.1193 6.8128 17.853 8.2394 18.179 10.0329L17.4046 10.0736C17.6492 8.7965 18.0704 7.7231 18.6682 6.8536C19.2932 5.9568 20.054 5.2911 20.9507 4.8563C21.8475 4.3944 22.8529 4.1634 23.967 4.1634C25.4887 4.1634 26.793 4.4759 27.88 5.1009C28.9669 5.7259 29.8093 6.6633 30.4071 7.9133C31.0049 9.1361 31.3038 10.6443 31.3038 12.4377V26.5H25.1898V14.1496C25.1898 12.4377 24.9317 11.1606 24.4154 10.3182C23.8991 9.4486 23.0567 9.0139 21.8882 9.0139C21.1545 9.0139 20.5296 9.2177 20.0133 9.6253C19.497 10.0329 19.0894 10.6307 18.7905 11.4187C18.5187 12.1796 18.3828 13.1171 18.3828 14.2312V26.5H12.8802V14.2312C12.8802 12.5464 12.6357 11.2557 12.1465 10.3589C11.6574 9.4622 10.815 9.0139 9.6194 9.0139C8.8857 9.0139 8.2471 9.2177 7.7037 9.6253C7.1874 10.0329 6.7934 10.6307 6.5216 11.4187C6.2499 12.2067 6.114 13.1442 6.114 14.2312V26.5H0Z"/>
  </g>
</svg>
