<svg width="64" height="64" viewBox="0 0 64 64" fill="none" xmlns="http://www.w3.org/2000/svg">
<path d="M5.61439 46.8346V25.6026H10.962L11.1601 30.7126L10.6055 30.4749C10.896 29.3394 11.3317 28.3755 11.9127 27.5832C12.5201 26.791 13.2463 26.1836 14.0913 25.7611C14.9364 25.3386 15.8607 25.1273 16.8642 25.1273C18.6335 25.1273 20.0595 25.6423 21.1422 26.6722C22.2514 27.7021 22.9644 29.0885 23.2813 30.8314L22.5287 30.871C22.7663 29.6299 23.1757 28.5867 23.7566 27.7417C24.364 26.8702 25.1034 26.2232 25.9749 25.8007C26.8464 25.3518 27.8235 25.1273 28.9062 25.1273C30.385 25.1273 31.6526 25.431 32.7089 26.0384C33.7652 26.6458 34.5839 27.5568 35.1649 28.7716C35.7458 29.96 36.0363 31.4256 36.0363 33.1685V46.8346H30.0945V34.8322C30.0945 33.1685 29.8437 31.9273 29.3419 31.1087C28.8402 30.2636 28.0215 29.8411 26.886 29.8411C26.173 29.8411 25.5656 30.0392 25.0638 30.4353C24.5621 30.8314 24.166 31.4124 23.8755 32.1782C23.6114 32.9176 23.4794 33.8287 23.4794 34.9114V46.8346H18.1317V34.9114C18.1317 33.2742 17.8941 32.0198 17.4187 31.1483C16.9434 30.2769 16.1247 29.8411 14.9628 29.8411C14.2498 29.8411 13.6292 30.0392 13.101 30.4353C12.5993 30.8314 12.2164 31.4124 11.9523 32.1782C11.6882 32.9441 11.5562 33.8551 11.5562 34.9114V46.8346H5.61439Z" fill="white"/>
<rect x="39.7694" y="17.5628" width="21.4564" height="28.8837" fill="white"/>
</svg>
